<svg xmlns="http://www.w3.org/2000/svg" xmlns:xlink="http://www.w3.org/1999/xlink" width="445" height="639" viewBox="0 0 445 639"><defs><path id="w6yla" d="M215 264a5 5 0 0 1 5-5h434.97a5 5 0 0 1 5 5v629a5 5 0 0 1-5 5H220a5 5 0 0 1-5-5z"/><path id="w6ylc" d="M591.051 795.046l165.419-165.39c12.008-12.007 31.478-12.007 43.486 0 12.008 12.005 12.008 31.472 0 43.478L634.537 838.526c-12.008 12.005-31.478 12.005-43.486 0-12.008-12.007-12.008-31.473 0-43.48z"/><path id="w6yld" d="M510.258 749.23l165.419-165.39c12.008-12.006 31.478-12.006 43.486 0 12.009 12.007 12.009 31.473 0 43.48L553.745 792.71c-12.009 12.007-31.478 12.007-43.487 0-12.008-12.006-12.008-31.473 0-43.48z"/><path id="w6yle" d="M215 898V259h62.72v639z"/><clipPath id="w6ylb"><use xlink:href="#w6yla"/></clipPath></defs><g><g transform="translate(-215 -259)"><use fill="#44444f" xlink:href="#w6yla"/></g><g clip-path="url(#w6ylb)" transform="translate(-215 -259)"><use fill="#65e496" xlink:href="#w6ylc"/></g><g clip-path="url(#w6ylb)" transform="translate(-215 -259)"><use fill="#65e496" xlink:href="#w6yld"/></g><g clip-path="url(#w6ylb)" transform="translate(-215 -259)"><use fill="#3d3d47" xlink:href="#w6yle"/></g></g></svg>