<svg xmlns="http://www.w3.org/2000/svg" xmlns:xlink="http://www.w3.org/1999/xlink" width="269" height="409" viewBox="0 0 269 409"><defs><path id="o4oma" d="M265 3387a5 5 0 0 1 5-5h258.94a5 5 0 0 1 5 5v399a5 5 0 0 1-5 5H270a5 5 0 0 1-5-5z"/><path id="o4omc" d="M515.672 3676.17l105.655-61a5 5 0 1 1 5 8.66l-105.655 61a5 5 0 1 1-5-8.66z"/><path id="o4omd" d="M515.672 3649.17l105.655-61a5 5 0 1 1 5 8.66l-105.655 61a5 5 0 1 1-5-8.66z"/><path id="o4ome" d="M265 3791v-409h37.91v409z"/><clipPath id="o4omb"><use xlink:href="#o4oma"/></clipPath></defs><g><g transform="translate(-265 -3382)"><use fill="#44444f" xlink:href="#o4oma"/></g><g clip-path="url(#o4omb)" transform="translate(-265 -3382)"><use fill="#65e496" xlink:href="#o4omc"/></g><g clip-path="url(#o4omb)" transform="translate(-265 -3382)"><use fill="#65e496" xlink:href="#o4omd"/></g><g clip-path="url(#o4omb)" transform="translate(-265 -3382)"><use fill="#3d3d47" xlink:href="#o4ome"/></g></g></svg>